<svg width="23" height="19" viewBox="0 0 23 19" fill="none" xmlns="http://www.w3.org/2000/svg">
<path d="M22.744 7.04663L22.1458 6.03321C22.1189 5.98853 22.0749 5.95599 22.0234 5.94269C21.9718 5.92939 21.9169 5.93641 21.8707 5.96222L20.5911 6.68679L18.615 1.39448C18.5106 1.07869 18.3055 0.803226 18.0292 0.607869C17.753 0.412513 17.4198 0.307368 17.0779 0.307618H6.14214C5.26637 0.307618 4.48902 0.855943 4.21897 1.66619L2.33619 6.68924L1.05408 5.96467C1.00785 5.93886 0.952976 5.93184 0.901433 5.94514C0.84989 5.95844 0.805866 5.99098 0.778976 6.03566L0.180826 7.04663C0.125301 7.13965 0.158111 7.25715 0.254017 7.311L1.77842 8.17265L1.41246 9.15181C1.38217 9.23014 1.36703 9.31337 1.36703 9.39659V17.9201C1.36703 18.3044 1.66484 18.6153 2.0308 18.6153H3.73692C4.04735 18.6153 4.3174 18.3877 4.38302 18.0694L4.57736 17.1466H18.3474L18.5418 18.0694C18.6099 18.3877 18.8774 18.6153 19.1879 18.6153H20.894C21.2599 18.6153 21.5578 18.3044 21.5578 17.9201V9.39659C21.5578 9.31337 21.5426 9.23014 21.5123 9.15181L21.1464 8.17265L22.6683 7.311C22.7141 7.28534 22.7477 7.24327 22.7618 7.19383C22.776 7.14439 22.7696 7.09153 22.744 7.04663ZM5.20327 12.1284C4.6455 12.1284 4.19373 11.6903 4.19373 11.1493C4.19373 10.6083 4.6455 10.1701 5.20327 10.1701C5.76104 10.1701 6.21281 10.6083 6.21281 11.1493C6.21281 11.6903 5.76104 12.1284 5.20327 12.1284ZM14.9958 13.9643C14.9958 14.072 14.9049 14.1602 14.7939 14.1602H8.13093C8.01988 14.1602 7.92902 14.072 7.92902 13.9643V11.9081C7.92902 11.8004 8.01988 11.7123 8.13093 11.7123H9.14046C9.25151 11.7123 9.34237 11.8004 9.34237 11.9081V12.7894H13.5824V11.9081C13.5824 11.8004 13.6733 11.7123 13.7843 11.7123H14.7939C14.9049 11.7123 14.9958 11.8004 14.9958 11.9081V13.9643ZM17.7215 12.1284C17.1638 12.1284 16.712 11.6903 16.712 11.1493C16.712 10.6083 17.1638 10.1701 17.7215 10.1701C18.2793 10.1701 18.7311 10.6083 18.7311 11.1493C18.7311 11.6903 18.2793 12.1284 17.7215 12.1284ZM4.09278 7.15923L5.92761 2.26592L5.94023 2.2341L5.95033 2.20228C5.97809 2.1215 6.0538 2.06764 6.14214 2.06764H16.9341L18.8371 7.15923H4.09278Z" fill="#333333"/>
</svg>

