<svg width="21" height="21" viewBox="0 0 21 21" fill="none" xmlns="http://www.w3.org/2000/svg">
<path d="M14.6699 3.11007L11.8939 5.88707L8.05686 5.02707C8.41886 4.52107 8.97286 3.34307 8.52086 2.89107C8.00386 2.37507 6.54286 3.17107 6.21686 3.49607L5.30386 4.40907L2.61386 3.80507L0.593855 5.82507L2.82586 6.88707L2.74386 6.96907L4.44386 8.66907L5.13386 7.98307L8.29686 9.48707L4.56986 13.2101H1.41386L0.276855 14.3481L3.87686 15.2961L5.70686 17.1261L6.65386 20.7241L7.79086 19.5871V16.4301L11.5159 12.7051L13.0199 15.8691L12.3319 16.5551L14.0339 18.2551L14.1139 18.1751L15.1769 20.4051L17.1969 18.3851L16.5929 15.6971L17.5049 14.7851C17.8309 14.4591 18.6249 12.9951 18.1089 12.4791C17.6559 12.0271 16.4789 12.5791 15.9729 12.9431L15.1129 9.10507L17.8889 6.32807C18.8359 5.38007 21.4889 1.46507 20.5089 0.488067C19.5319 -0.489933 15.6169 2.16107 14.6689 3.10807L14.6699 3.11007Z" fill="white"/>
</svg>

