<svg width="21" height="22" viewBox="0 0 21 22" fill="none" xmlns="http://www.w3.org/2000/svg">
<path d="M2.16683 9.83341V3.16675C2.16683 2.89048 2.27658 2.62553 2.47193 2.43018C2.66728 2.23483 2.93223 2.12508 3.2085 2.12508H8.41683V0.041748H12.5835V2.12508H17.7918C18.0681 2.12508 18.3331 2.23483 18.5284 2.43018C18.7238 2.62553 18.8335 2.89048 18.8335 3.16675V9.83341L19.9647 10.173C20.2211 10.2501 20.4379 10.423 20.5702 10.6558C20.7025 10.8885 20.7401 11.1633 20.6752 11.423L19.096 17.7438C18.244 17.7875 17.3943 17.6209 16.6219 17.2587C15.8495 16.8964 15.1781 16.3497 14.6668 15.6667C14.1821 16.3141 13.5532 16.8395 12.8298 17.2011C12.1065 17.5628 11.3088 17.7507 10.5002 17.7501C9.69148 17.7507 8.89379 17.5628 8.17049 17.2011C7.44718 16.8395 6.81819 16.3141 6.3335 15.6667C5.82226 16.3497 5.15083 16.8964 4.37842 17.2587C3.60601 17.6209 2.75634 17.7875 1.90433 17.7438L0.325163 11.423C0.260264 11.1633 0.297854 10.8885 0.430133 10.6558C0.562412 10.423 0.779224 10.2501 1.03558 10.173L2.16683 9.83341ZM4.25016 9.20842L10.5002 7.33341L13.3689 8.19383L15.2533 8.75946L16.7502 9.20842V4.20841H4.25016V9.20842ZM2.16683 19.8334C3.70461 19.8355 5.18878 19.2686 6.3335 18.2417C7.47821 19.2686 8.96239 19.8355 10.5002 19.8334C12.0379 19.8355 13.5221 19.2686 14.6668 18.2417C15.8115 19.2686 17.2957 19.8355 18.8335 19.8334H20.9168V21.9167H18.8335C17.3706 21.9191 15.9331 21.5346 14.6668 20.8022C13.4005 21.5346 11.963 21.9191 10.5002 21.9167C9.03729 21.9191 7.5998 21.5346 6.3335 20.8022C5.06719 21.5346 3.6297 21.9191 2.16683 21.9167H0.0834961V19.8334H2.16683Z" fill="#333333"/>
</svg>

