<svg width="20" height="22" viewBox="0 0 20 22" fill="none" xmlns="http://www.w3.org/2000/svg">
<path d="M1.16683 17.7499H6.896V19.052C6.896 19.8117 6.59419 20.5403 6.05698 21.0775C5.51977 21.6148 4.79115 21.9166 4.03141 21.9166C3.27168 21.9166 2.54306 21.6148 2.00585 21.0775C1.46863 20.5403 1.16683 19.8117 1.16683 19.052V17.7499ZM5.3335 5.3749C7.41683 5.3749 8.4585 8.3749 8.4585 10.4582C8.4585 11.4999 7.93766 12.5416 7.41683 14.1041L6.896 15.6666H1.16683C1.16683 14.6249 0.645996 13.0624 0.645996 10.4582C0.645996 7.85407 2.72725 5.3749 5.3335 5.3749ZM17.8897 13.6853L17.6637 14.9676C17.5318 15.7159 17.108 16.3811 16.4856 16.8169C15.8633 17.2527 15.0932 17.4235 14.345 17.2916C13.5967 17.1596 12.9315 16.7359 12.4956 16.1135C12.0598 15.4911 11.8891 14.7211 12.021 13.9728L12.2481 12.6916L17.8897 13.6853ZM15.9356 0.775941C18.5022 1.22802 20.121 4.03011 19.6689 6.59469C19.2168 9.16032 18.4325 10.6082 18.2523 11.6343L12.6095 10.6395L12.3679 9.01031C12.1262 7.38115 11.795 6.26448 11.9752 5.23948C12.3366 3.1874 13.8835 0.414482 15.9356 0.775941Z" fill="#333333"/>
</svg>

