<svg width="23" height="23" viewBox="0 0 23 23" fill="none" xmlns="http://www.w3.org/2000/svg">
<path d="M17.25 1.4375H14.375C14.375 1.24688 14.2993 1.06406 14.1645 0.929267C14.0297 0.794475 13.8469 0.71875 13.6562 0.71875H9.34375C9.15313 0.71875 8.97031 0.794475 8.83552 0.929267C8.70073 1.06406 8.625 1.24688 8.625 1.4375H5.75C5.03125 1.4375 4.3125 2.15625 4.3125 2.875V15.8125C4.3125 16.887 11.5 19.4062 11.5 19.4062C11.5 19.4062 18.6875 16.8574 18.6875 15.8125V2.875C18.6875 2.15625 17.9688 1.4375 17.25 1.4375ZM11.5 15.8125C11.0735 15.8125 10.6566 15.686 10.3021 15.4491C9.94746 15.2122 9.67109 14.8754 9.50788 14.4814C9.34468 14.0874 9.30198 13.6539 9.38518 13.2356C9.46838 12.8173 9.67374 12.4331 9.9753 12.1316C10.2769 11.83 10.6611 11.6246 11.0793 11.5414C11.4976 11.4582 11.9312 11.5009 12.3252 11.6641C12.7192 11.8273 13.0559 12.1037 13.2929 12.4583C13.5298 12.8129 13.6562 13.2298 13.6562 13.6562C13.6562 14.2281 13.4291 14.7766 13.0247 15.1809C12.6203 15.5853 12.0719 15.8125 11.5 15.8125ZM16.5312 8.98438C16.5312 9.07969 16.4934 9.1711 16.426 9.23849C16.3586 9.30589 16.2672 9.34375 16.1719 9.34375H6.82812C6.73281 9.34375 6.6414 9.30589 6.57401 9.23849C6.50661 9.1711 6.46875 9.07969 6.46875 8.98438V5.39062C6.46875 5.29531 6.50661 5.2039 6.57401 5.13651C6.6414 5.06911 6.73281 5.03125 6.82812 5.03125H16.1719C16.2672 5.03125 16.3586 5.06911 16.426 5.13651C16.4934 5.2039 16.5312 5.29531 16.5312 5.39062V8.98438Z" fill="#333333"/>
<path d="M14.1055 19.4062L14.7937 20.125H8.20186L8.89455 19.4062L7.45705 18.8223L4.01514 22.2812H6.04561L6.76436 21.5625H16.2312L16.9499 22.2812H18.9849L15.5547 18.7886L14.1055 19.4062Z" fill="#333333"/>
</svg>

